<svg width="1110.902" height="272.401" xmlns="http://www.w3.org/2000/svg"><path style="fill: #000;" d="M746.1 2.401l-54.9 204a4.666 4.666 0 01-.768 1.545q-.842 1.08-2.325 1.358a6.004 6.004 0 01-1.107.097h-12.6a4.945 4.945 0 01-1.707-.276q-1.415-.518-2.123-2.009a6.122 6.122 0 01-.37-1.015l-44.1-174-6-23.1h-7.2l-6 23.1-44.1 174a5.507 5.507 0 01-.67 1.555q-1.131 1.745-3.53 1.745H546q-3.3 0-4.2-3l-54.9-204h7.8l48 179.7 5.4 20.7h8.4l5.1-20.4 45-176.7a5.507 5.507 0 01.67-1.556q1.131-1.744 3.53-1.744h11.4a4.945 4.945 0 011.707.275q1.415.518 2.123 2.009a6.122 6.122 0 01.37 1.016l45 176.4 5.1 20.7h8.4l5.4-20.4 48-180h7.8zm-635.4 140.7l22.8 66.3h-8.4l-22.2-65.4a69.413 69.413 0 00-3.495-8.382q-4.183-8.334-9.855-12.768a29.966 29.966 0 00-13.604-5.882 40.824 40.824 0 00-6.946-.568q-31.467 0-50.8-.704a482.484 482.484 0 01-10.7-.496v94.2H0v-207A462.207 462.207 0 0118.105.936 385.219 385.219 0 0128.35.451Q41.7.001 66.3.001a164.77 164.77 0 0113.269.498q13.515 1.095 22.281 4.602 12.75 5.1 18.45 17.55 5.442 11.887 5.688 33.483a181.445 181.445 0 01.012 2.067 137.171 137.171 0 01-.624 13.583q-1.727 17.284-8.226 26.317-8.85 12.3-29.25 15.3v1.2a25.575 25.575 0 0111.076 7.261q6.427 6.887 11.094 19.489a103.051 103.051 0 01.63 1.75zm838.8-77.7l-.9 5.4a937.298 937.298 0 00-40.005-2.089 804.784 804.784 0 00-14.895-.311h-9.3q-12.667 0-20.007 1.816a33.761 33.761 0 00-1.593.434q-7.5 2.25-11.25 8.85a22.755 22.755 0 00-2.037 5.036q-1.713 6.038-1.713 15.364a61.752 61.752 0 00.449 7.728q1.059 8.369 4.62 13.174a16.63 16.63 0 00.931 1.148q5.297 5.959 15.27 7.826a45.502 45.502 0 002.73.424l48.6 6a49.754 49.754 0 0113.921 3.688q18.779 8.359 18.779 32.912a79.607 79.607 0 01-.498 9.232q-1.274 10.872-5.802 17.018a27.944 27.944 0 01-13.781 9.925 37.362 37.362 0 01-4.219 1.175 88.601 88.601 0 01-8.191 1.344q-8.575 1.036-20.291 1.182a315.307 315.307 0 01-3.918.024 424.595 424.595 0 01-30.396-1.045 337.889 337.889 0 01-21.804-2.255l.9-5.4a468.205 468.205 0 0032.288 1.968 409.706 409.706 0 0010.312.132q19.401 0 30.764-1.275a93.694 93.694 0 004.936-.675q11.7-1.95 17.1-9 5.4-7.05 5.4-22.35a50.869 50.869 0 00-.534-7.64q-1.364-8.959-6.216-13.81-6.394-6.394-17.499-8.078a48.449 48.449 0 00-1.251-.172l-48.6-6a51.385 51.385 0 01-9.398-1.925q-8.761-2.73-14.002-8.575a26.798 26.798 0 01-5.193-8.996q-2.607-7.298-2.607-17.704a85.779 85.779 0 01.392-8.484q.907-9.098 3.915-14.821a23.253 23.253 0 01.643-1.145q4.95-8.25 14.55-10.95a59.53 59.53 0 017.229-1.51q7.659-1.152 18.168-1.189a198.995 198.995 0 01.703-.001 544.603 544.603 0 0159.467 3.164 499.472 499.472 0 013.833.436zm-663.6 136.8l1.2 5.4q-5.202 1.583-15.519 2.91a299.69 299.69 0 01-7.281.84 343.636 343.636 0 01-13.223 1.128q-8.058.522-14.977.522a113.594 113.594 0 01-14.761-.899q-13.121-1.724-22.289-6.751a43.862 43.862 0 01-17.691-18.14 57.861 57.861 0 01-2.859-6.16q-6.6-16.65-6.6-44.25a206.828 206.828 0 01.601-16.295q1.277-16.114 5.271-27.06a61.704 61.704 0 01.278-.745 49.564 49.564 0 016.788-12.481A40.015 40.015 0 01197.7 69.151q13.5-7.35 36-7.35 27.701 0 41.664 9.991a35.92 35.92 0 011.086.809 34.614 34.614 0 0112.588 20.096 54.738 54.738 0 011.362 12.604q0 18.04-6.997 26.896a22.664 22.664 0 01-.203.254q-7.2 8.85-23.7 8.85h-80.1q.405 16.189 3.335 27.942a66.807 66.807 0 003.415 10.308 44.939 44.939 0 006.697 11.085 36.335 36.335 0 0011.753 9.315q9.333 4.666 23.157 5.792a114.026 114.026 0 009.243.358q24.9 0 48.9-3.9zm820.5 0l1.2 5.4q-5.202 1.583-15.519 2.91a299.69 299.69 0 01-7.281.84 343.636 343.636 0 01-13.223 1.128q-8.058.522-14.977.522a113.594 113.594 0 01-14.761-.899q-13.121-1.724-22.289-6.751a43.862 43.862 0 01-17.691-18.14 57.861 57.861 0 01-2.859-6.16q-6.6-16.65-6.6-44.25a206.828 206.828 0 01.601-16.295q1.277-16.114 5.271-27.06a61.704 61.704 0 01.278-.745 49.564 49.564 0 016.788-12.481 40.015 40.015 0 0112.862-11.069q13.5-7.35 36-7.35 27.701 0 41.664 9.991a35.92 35.92 0 011.086.809 34.614 34.614 0 0112.588 20.096 54.738 54.738 0 011.362 12.604q0 18.04-6.997 26.896a22.664 22.664 0 01-.203.254q-7.2 8.85-23.7 8.85h-80.1q.405 16.189 3.335 27.942a66.807 66.807 0 003.415 10.308 44.939 44.939 0 006.697 11.085 36.335 36.335 0 0011.753 9.315q9.333 4.666 23.157 5.792a114.026 114.026 0 009.243.358q24.9 0 48.9-3.9zm-657.3-131.1v201.3h-7.2v-70.5a231.615 231.615 0 01.056-5.25q.129-5.685.555-9.787a62.119 62.119 0 01.289-2.363 264.318 264.318 0 01-12.826 9.558q-10.949 7.621-20.174 12.042-14.4 6.9-30.3 6.9a57.492 57.492 0 01-14.748-1.773A37.551 37.551 0 01342 194.851a58.234 58.234 0 01-6.418-14.188q-4.493-14.339-5.164-35.585a243.248 243.248 0 01-.118-7.677q0-27.746 5.785-44.069a64.409 64.409 0 01.065-.181 51.506 51.506 0 016.122-12.122A39.333 39.333 0 01354.9 69.301a49.049 49.049 0 0111.967-4.856q9.83-2.644 22.833-2.644a163.889 163.889 0 0119.884 1.307q10.549 1.295 22.502 3.87a358.07 358.07 0 0117.014 4.123zm-7.2 107.1v-102a247.12 247.12 0 00-23.641-5.127q-12.263-2.003-23.309-2.315a143.045 143.045 0 00-4.05-.058 99.367 99.367 0 00-11.555.63q-11.807 1.385-19.645 5.82a34.258 34.258 0 00-12.656 12.648 48.683 48.683 0 00-3.994 8.652q-5.018 14.195-5.24 38.944a257.904 257.904 0 00-.01 2.306q0 36.6 10.05 52.5a32.81 32.81 0 0022.247 14.906 53.383 53.383 0 0010.603.994q15 0 28.2-6.45a121.239 121.239 0 008.895-4.867q10.493-6.271 24.105-16.583zM7.5 7.501v102h58.8q19.8-.3 30.9-4.8 11.1-4.5 16.05-15.45 4.95-10.95 4.95-31.05 0-19.431-4.491-30.424a36.94 36.94 0 00-.459-1.076 29.104 29.104 0 00-7.979-10.746 29.228 29.228 0 00-8.071-4.704 52.022 52.022 0 00-8.549-2.455Q79.371 6.901 66.3 6.901q-38.4 0-58.8.6zm785.1 57.9v144h-7.2v-144h7.2zm-613.2 69.3h80.1a33.042 33.042 0 006.708-.635q7.24-1.503 11.142-6.565a22.935 22.935 0 003.489-6.724q1.087-3.218 1.601-7.179a60.018 60.018 0 00.46-7.697 49.138 49.138 0 00-1.1-10.753q-1.567-6.983-5.364-12.045a27.437 27.437 0 00-5.386-5.402 36.606 36.606 0 00-10.241-5.307q-9.603-3.325-23.647-3.657a134.106 134.106 0 00-3.162-.036q-20.1 0-31.8 6.45t-17.1 20.85a73.715 73.715 0 00-3.11 11.069q-1.196 5.842-1.844 12.75a184.307 184.307 0 00-.746 14.881zm820.5 0h80.1a33.042 33.042 0 006.708-.635q7.24-1.503 11.142-6.565a22.935 22.935 0 003.489-6.724q1.087-3.218 1.601-7.179a60.018 60.018 0 00.46-7.697 49.138 49.138 0 00-1.1-10.753q-1.567-6.983-5.364-12.045a27.437 27.437 0 00-5.386-5.402 36.606 36.606 0 00-10.241-5.307q-9.603-3.325-23.647-3.657a134.106 134.106 0 00-3.162-.036q-20.1 0-31.8 6.45t-17.1 20.85a73.715 73.715 0 00-3.11 11.069q-1.196 5.842-1.844 12.75a184.307 184.307 0 00-.746 14.881zM794.1 9.301v18.6a5.183 5.183 0 01-.178 1.424q-.458 1.598-2.089 2.022a5.304 5.304 0 01-1.333.154h-3a5.183 5.183 0 01-1.425-.179q-1.597-.457-2.022-2.088a5.304 5.304 0 01-.153-1.333v-18.6a5.183 5.183 0 01.178-1.425q.458-1.598 2.089-2.022a5.304 5.304 0 011.333-.153h3a5.183 5.183 0 011.425.178q1.597.458 2.022 2.088a5.304 5.304 0 01.153 1.334z" vector-effect="non-scaling-stroke" stroke-linecap="round" fill-rule="evenodd" font-size="12" stroke="#000" stroke-width=".25mm" fill="none"/></svg>