<?xml version="1.0" standalone="no"?>
<!DOCTYPE svg PUBLIC "-//W3C//DTD SVG 20010904//EN"
 "http://www.w3.org/TR/2001/REC-SVG-20010904/DTD/svg10.dtd">
<svg version="1.0" xmlns="http://www.w3.org/2000/svg"
 width="400.000000pt" height="400.000000pt" viewBox="0 0 400.000000 400.000000"
 preserveAspectRatio="xMidYMid meet">
<metadata>
Created by potrace 1.11, written by Peter Selinger 2001-2013
</metadata>
<g transform="translate(0.000000,400.000000) scale(0.100000,-0.100000)"
fill="#000000" stroke="none">
<path d="M3859 3460 c-451 -455 -872 -1064 -1265 -1833 -42 -82 -80 -145 -84
-140 -5 4 -59 159 -120 343 -61 184 -123 366 -137 404 -31 83 -25 95 -94 -159
-28 -99 -66 -238 -86 -310 -19 -71 -40 -148 -45 -171 -11 -42 -7 -54 151 -509
l18 -50 303 0 303 0 8 25 c136 451 217 666 405 1081 51 113 308 621 374 739
119 214 188 334 287 498 58 95 102 178 100 185 -2 7 -56 -40 -118 -103z"/>
<path d="M1851 2710 l-224 -5 -18 -70 c-11 -38 -75 -299 -144 -580 -70 -280
-130 -514 -134 -518 -4 -4 -13 18 -20 50 -7 32 -46 195 -87 363 -40 168 -94
391 -119 495 -26 105 -51 207 -56 228 l-10 37 -221 0 -220 0 4 -22 c3 -13 37
-133 76 -268 39 -135 112 -391 162 -570 50 -179 100 -352 110 -385 10 -33 42
-144 71 -248 l52 -187 238 0 238 0 16 58 c8 31 22 80 30 107 8 28 37 136 66
240 28 105 64 237 80 295 15 58 41 154 57 213 17 60 34 113 39 118 6 6 31 -59
67 -171 31 -99 61 -180 66 -180 5 0 14 19 20 43 6 23 22 80 35 127 13 47 33
121 45 164 11 44 24 93 30 110 5 17 26 90 45 162 l36 131 -31 99 c-17 55 -36
113 -41 131 -6 17 -15 33 -22 35 -7 1 -113 1 -236 -2z"/>
</g>
</svg>
